<?xml version="1.0" standalone="no"?>
<!DOCTYPE svg PUBLIC "-//W3C//DTD SVG 20010904//EN"
 "http://www.w3.org/TR/2001/REC-SVG-20010904/DTD/svg10.dtd">
<svg version="1.0" xmlns="http://www.w3.org/2000/svg"
 width="836.000000pt" height="836.000000pt" viewBox="0 0 836.000000 836.000000"
 preserveAspectRatio="xMidYMid meet">
<metadata>
Created by potrace 1.14, written by Peter Selinger 2001-2017
</metadata>
<g transform="translate(0.000000,836.000000) scale(0.100000,-0.100000)"
fill="#000000" stroke="none">
<path d="M4085 8270 c-394 -42 -715 -332 -803 -725 -23 -105 -20 -289 7 -399
41 -171 130 -325 257 -447 85 -81 140 -118 246 -169 135 -65 219 -83 388 -83
168 0 251 17 388 83 106 51 161 88 246 169 428 410 362 1104 -138 1430 -168
109 -390 162 -591 141z"/>
<path d="M1355 6994 c-216 -46 -438 -195 -564 -378 -48 -70 -108 -202 -132
-291 -32 -118 -33 -337 -1 -454 91 -335 344 -584 679 -668 50 -13 108 -17 218
-17 134 1 160 4 239 28 335 101 570 350 647 684 18 79 21 113 17 235 -6 155
-28 248 -91 372 -131 261 -376 444 -661 494 -84 15 -268 12 -351 -5z"/>
<path d="M6630 6995 c-333 -69 -598 -313 -696 -642 -36 -119 -44 -311 -19
-434 56 -281 235 -514 492 -643 233 -116 516 -126 755 -26 208 86 374 241 473
443 72 146 89 224 89 407 -1 140 -3 164 -28 244 -103 338 -364 581 -698 650
-93 19 -276 20 -368 1z"/>
<path d="M759 4175 c-385 -73 -678 -365 -744 -740 -51 -292 36 -579 239 -793
156 -165 344 -257 572 -281 173 -19 324 9 491 89 262 127 437 352 498 643 20
90 19 269 -1 364 -70 341 -336 618 -674 703 -110 28 -278 35 -381 15z"/>
<path d="M7315 4181 c-354 -59 -627 -288 -741 -623 -73 -216 -54 -490 50 -696
223 -441 760 -630 1203 -422 269 126 455 361 515 650 28 131 21 307 -16 433
-96 324 -351 566 -676 642 -86 19 -261 28 -335 16z"/>
<path d="M2550 1895 c-346 -71 -618 -327 -712 -670 -31 -115 -31 -345 0 -460
84 -308 312 -546 612 -643 199 -64 436 -54 631 27 221 92 412 289 499 513 81
208 81 458 0 666 -87 224 -278 421 -499 513 -154 64 -373 86 -531 54z"/>
<path d="M5440 1891 c-276 -60 -525 -261 -641 -516 -60 -133 -74 -205 -74
-380 0 -175 14 -247 74 -380 120 -264 380 -467 666 -521 107 -20 296 -15 390
10 323 86 563 319 662 643 24 80 27 103 27 248 0 145 -3 168 -27 248 -100 325
-336 555 -662 643 -94 25 -310 28 -415 5z"/>
</g>
</svg>
